<svg width="62" height="62" viewBox="0 0 62 62" fill="none" xmlns="http://www.w3.org/2000/svg">
<path d="M3 3H59V59H3V3Z" fill="#DCDCDC"/>
<path d="M54 59C54 55.8483 53.3922 52.7274 52.2112 49.8156C51.0302 46.9038 49.2992 44.258 47.117 42.0294C44.9348 39.8008 42.3442 38.033 39.4931 36.8269C36.6419 35.6208 33.5861 35 30.5 35C27.4139 35 24.3581 35.6208 21.5069 36.8269C18.6558 38.033 16.0652 39.8008 13.883 42.0294C11.7008 44.258 9.96982 46.9038 8.78883 49.8156C7.60784 52.7274 7 55.8483 7 59L54 59Z" fill="#52525B"/>
<path d="M43 27C43 33.6274 37.6274 39 31 39C24.3726 39 19 33.6274 19 27C19 20.3726 24.3726 15 31 15C37.6274 15 43 20.3726 43 27Z" fill="#52525B"/>
<path d="M3 1.90909H1.90909V3V59V60.0909H3H5.90909H7L54 60.0909H55.0909L59 60.0909H60.0909V59V3V1.90909H59H3Z" stroke="#DCDCDC" stroke-width="2.18182"/>
</svg>
