<svg width="88" height="88" viewBox="0 0 88 88" fill="none" xmlns="http://www.w3.org/2000/svg">
<g clip-path="url(#clip0_63_97)">
<rect width="88" height="88" fill="#DCDCDC"/>
<path d="M81 88C81 83.1411 80.043 78.3298 78.1835 73.8407C76.3241 69.3517 73.5987 65.2728 70.163 61.837C66.7272 58.4013 62.6483 55.6759 58.1593 53.8165C53.6702 51.957 48.8589 51 44 51C39.1411 51 34.3298 51.957 29.8407 53.8165C25.3517 55.6759 21.2728 58.4013 17.837 61.8371C14.4013 65.2728 11.6759 69.3517 9.81646 73.8407C7.95703 78.3298 7 83.1411 7 88L81 88Z" fill="#52525B"/>
<circle cx="43.5" cy="38.5" r="21.62" fill="#52525B" stroke="#DCDCDC" stroke-width="3.76"/>
</g>
<defs>
<clipPath id="clip0_63_97">
<rect width="88" height="88" fill="white"/>
</clipPath>
</defs>
</svg>
