<svg width="360" height="59" viewBox="0 0 360 59" fill="none" xmlns="http://www.w3.org/2000/svg">
<path d="M5.704 18.416C8.904 15.344 12.9787 13.808 17.928 13.808C22.8773 13.808 26.9307 15.3653 30.088 18.48C33.2453 21.5947 34.824 25.6267 34.824 30.576C34.824 35.2267 33.416 39.0667 30.6 42.096C27.8267 45.1253 24.328 46.64 20.104 46.64C15.1547 46.64 11.5493 44.9547 9.288 41.584V58.8H0.968V30.192C0.968 25.4133 2.54667 21.488 5.704 18.416ZM18.056 39.984C20.616 39.984 22.7067 39.088 24.328 37.296C25.9493 35.4613 26.76 33.0933 26.76 30.192C26.76 27.3333 25.9493 25.008 24.328 23.216C22.7067 21.3813 20.616 20.464 18.056 20.464C15.4533 20.464 13.3413 21.3813 11.72 23.216C10.0987 25.008 9.288 27.3333 9.288 30.192C9.288 33.0933 10.0987 35.4613 11.72 37.296C13.3413 39.088 15.4533 39.984 18.056 39.984ZM54.883 13.744C59.7897 13.744 63.843 15.3013 67.043 18.416C70.243 21.488 71.843 25.4133 71.843 30.192V46H63.459V41.584C61.155 44.912 57.5497 46.576 52.643 46.576C48.4617 46.576 44.963 45.0613 42.147 42.032C39.331 39.0027 37.923 35.184 37.923 30.576C37.923 25.6267 39.5017 21.5947 42.659 18.48C45.859 15.3227 49.9337 13.744 54.883 13.744ZM48.867 36.784C50.4457 38.4907 52.4723 39.344 54.947 39.344C57.4217 39.344 59.4483 38.4907 61.027 36.784C62.6483 35.0347 63.459 32.8373 63.459 30.192C63.459 27.504 62.6483 25.3067 61.027 23.6C59.4483 21.8507 57.4217 20.976 54.947 20.976C52.4723 20.976 50.4457 21.8507 48.867 23.6C47.2883 25.3067 46.499 27.504 46.499 30.192C46.499 32.8373 47.2883 35.0347 48.867 36.784ZM97.778 14.384V21.296H90.738V46H82.354V21.296H76.466V14.384H82.354V6.128H90.738V14.384H97.778ZM110.523 2.288C111.504 3.14133 111.995 4.25066 111.995 5.616C111.995 6.98133 111.504 8.09066 110.523 8.944C109.584 9.79733 108.368 10.224 106.875 10.224C105.382 10.224 104.166 9.79733 103.227 8.944C102.288 8.048 101.819 6.93866 101.819 5.616C101.819 4.25066 102.288 3.14133 103.227 2.288C104.166 1.392 105.382 0.943996 106.875 0.943996C108.368 0.943996 109.584 1.392 110.523 2.288ZM102.715 14.384H111.099V46H102.715V14.384ZM151.097 30.256C151.097 31.2373 151.012 32.0693 150.842 32.752H125.306C125.775 34.8427 126.82 36.5493 128.442 37.872C130.063 39.152 131.962 39.792 134.138 39.792C135.972 39.792 137.615 39.3227 139.066 38.384C140.516 37.4027 141.54 36.1867 142.138 34.736H150.522C149.626 38.192 147.642 41.0293 144.57 43.248C141.498 45.4667 137.999 46.576 134.074 46.576C129.124 46.576 125.028 45.04 121.786 41.968C118.586 38.896 116.986 34.9707 116.986 30.192C116.986 25.4133 118.586 21.488 121.786 18.416C125.028 15.3013 129.124 13.744 134.074 13.744C138.98 13.744 143.034 15.3013 146.234 18.416C149.434 21.488 151.055 25.4347 151.097 30.256ZM134.138 20.528C132.175 20.528 130.426 21.0613 128.89 22.128C127.396 23.1947 126.308 24.624 125.626 26.416H142.97C142.33 24.6667 141.199 23.2587 139.578 22.192C137.956 21.0827 136.143 20.528 134.138 20.528ZM156.517 46V27.44C156.517 23.4293 157.904 20.144 160.677 17.584C163.45 15.024 167.034 13.744 171.429 13.744C175.824 13.744 179.408 15.024 182.181 17.584C184.997 20.1013 186.405 23.3867 186.405 27.44V46H178.021V27.44C178.021 25.4347 177.424 23.8133 176.229 22.576C175.034 21.296 173.456 20.656 171.493 20.656C169.53 20.656 167.93 21.296 166.693 22.576C165.498 23.8133 164.901 25.4347 164.901 27.44V46H156.517ZM212.341 14.384V21.296H205.301V46H196.917V21.296H191.029V14.384H196.917V6.128H205.301V14.384H212.341ZM261.758 27.76C260.947 33.3493 258.43 37.8933 254.206 41.392C250.024 44.848 244.926 46.576 238.91 46.576C232.168 46.576 226.6 44.4213 222.206 40.112C217.854 35.8027 215.678 30.3413 215.678 23.728C215.678 17.1147 217.854 11.6747 222.206 7.408C226.6 3.09866 232.168 0.943996 238.91 0.943996C244.926 0.943996 250.024 2.672 254.206 6.128C258.387 9.584 260.904 14.1067 261.758 19.696H252.606C251.838 16.5387 250.216 14 247.742 12.08C245.31 10.1173 242.366 9.136 238.91 9.136C234.771 9.136 231.379 10.5013 228.734 13.232C226.088 15.9627 224.766 19.44 224.766 23.664C224.766 27.9733 226.088 31.5147 228.734 34.288C231.379 37.0613 234.771 38.448 238.91 38.448C242.366 38.448 245.31 37.4667 247.742 35.504C250.216 33.5413 251.838 30.96 252.606 27.76H261.758ZM283.071 13.744C287.977 13.744 292.031 15.3013 295.231 18.416C298.431 21.488 300.031 25.4133 300.031 30.192V46H291.647V41.584C289.343 44.912 285.737 46.576 280.831 46.576C276.649 46.576 273.151 45.0613 270.335 42.032C267.519 39.0027 266.111 35.184 266.111 30.576C266.111 25.6267 267.689 21.5947 270.847 18.48C274.047 15.3227 278.121 13.744 283.071 13.744ZM277.055 36.784C278.633 38.4907 280.66 39.344 283.135 39.344C285.609 39.344 287.636 38.4907 289.215 36.784C290.836 35.0347 291.647 32.8373 291.647 30.192C291.647 27.504 290.836 25.3067 289.215 23.6C287.636 21.8507 285.609 20.976 283.135 20.976C280.66 20.976 278.633 21.8507 277.055 23.6C275.476 25.3067 274.687 27.504 274.687 30.192C274.687 32.8373 275.476 35.0347 277.055 36.784ZM315.214 46H306.83V27.184C306.83 23.1307 308.216 19.9947 310.99 17.776C313.763 15.5147 317.667 14.384 322.702 14.384V21.36C317.71 21.36 315.214 23.5573 315.214 27.952V46ZM359.097 30.256C359.097 31.2373 359.012 32.0693 358.842 32.752H333.306C333.775 34.8427 334.82 36.5493 336.442 37.872C338.063 39.152 339.962 39.792 342.138 39.792C343.972 39.792 345.615 39.3227 347.066 38.384C348.516 37.4027 349.54 36.1867 350.138 34.736H358.522C357.626 38.192 355.642 41.0293 352.57 43.248C349.498 45.4667 345.999 46.576 342.074 46.576C337.124 46.576 333.028 45.04 329.786 41.968C326.586 38.896 324.986 34.9707 324.986 30.192C324.986 25.4133 326.586 21.488 329.786 18.416C333.028 15.3013 337.124 13.744 342.074 13.744C346.98 13.744 351.034 15.3013 354.234 18.416C357.434 21.488 359.055 25.4347 359.097 30.256ZM342.138 20.528C340.175 20.528 338.426 21.0613 336.89 22.128C335.396 23.1947 334.308 24.624 333.626 26.416H350.97C350.33 24.6667 349.199 23.2587 347.578 22.192C345.956 21.0827 344.143 20.528 342.138 20.528Z" fill="#0094D4"/>
</svg>
